<svg width="149" height="38" viewBox="0 0 149 38" fill="none" xmlns="http://www.w3.org/2000/svg">
<path d="M4.24987 27.5518C4.21804 27.2315 4.07664 26.9768 3.82569 26.7877C3.57473 26.5985 3.25916 26.5039 2.87898 26.5039C2.61117 26.5039 2.3752 26.5498 2.17106 26.6416C1.9688 26.7333 1.80961 26.8607 1.6935 27.0236C1.57926 27.1847 1.52214 27.3682 1.52214 27.5742C1.52214 27.7259 1.55491 27.8589 1.62046 27.9731C1.68601 28.0874 1.77403 28.1857 1.88453 28.2681C1.99689 28.3486 2.1205 28.4179 2.25534 28.476C2.39206 28.534 2.52971 28.5827 2.66829 28.6221L3.27508 28.7962C3.45862 28.8468 3.64215 28.9114 3.82569 28.9901C4.00922 29.0687 4.17684 29.168 4.32853 29.2879C4.4821 29.4058 4.60477 29.551 4.69654 29.7233C4.79018 29.8937 4.837 30.0988 4.837 30.3385C4.837 30.6456 4.7574 30.9219 4.59822 31.1672C4.43903 31.4125 4.21055 31.6073 3.91277 31.7515C3.615 31.8939 3.25823 31.965 2.84246 31.965C2.45105 31.965 2.11114 31.9004 1.82272 31.7712C1.53431 31.6401 1.3077 31.4594 1.1429 31.229C0.97809 30.9987 0.885387 30.7318 0.864786 30.4284H1.40415C1.42288 30.655 1.49779 30.847 1.62889 31.0043C1.75998 31.1616 1.93041 31.2814 2.14016 31.3639C2.34992 31.4444 2.58402 31.4846 2.84246 31.4846C3.129 31.4846 3.3837 31.4369 3.60657 31.3414C3.8313 31.244 4.00735 31.1092 4.1347 30.9369C4.26392 30.7627 4.32853 30.5604 4.32853 30.3301C4.32853 30.1353 4.27797 29.9724 4.17684 29.8413C4.0757 29.7083 3.93431 29.5969 3.75265 29.507C3.57286 29.4171 3.36404 29.3375 3.12619 29.2682L2.43794 29.0659C1.98659 28.9311 1.63638 28.7447 1.3873 28.5069C1.13821 28.269 1.01367 27.9657 1.01367 27.5967C1.01367 27.2877 1.09608 27.0161 1.26088 26.782C1.42756 26.5461 1.6523 26.3625 1.93509 26.2314C2.21976 26.0985 2.53907 26.032 2.89303 26.032C3.25074 26.032 3.56724 26.0975 3.84254 26.2286C4.11784 26.3597 4.33602 26.5405 4.49708 26.7708C4.66002 26.9993 4.7471 27.2596 4.75834 27.5518H4.24987ZM9.00743 31.9566C8.60478 31.9566 8.25643 31.863 7.9624 31.6757C7.66837 31.4865 7.44083 31.2253 7.27977 30.8919C7.12058 30.5567 7.04099 30.1709 7.04099 29.7345C7.04099 29.3 7.12058 28.9142 7.27977 28.5771C7.44083 28.2381 7.66276 27.9731 7.94555 27.7821C8.23021 27.5892 8.55889 27.4928 8.93158 27.4928C9.16568 27.4928 9.39135 27.5358 9.6086 27.622C9.82584 27.7063 10.0206 27.8364 10.1929 28.0125C10.3671 28.1866 10.5047 28.4067 10.6059 28.6726C10.707 28.9367 10.7576 29.2495 10.7576 29.6109V29.8581H7.38652V29.4171H10.2463C10.2463 29.1399 10.1901 28.8908 10.0777 28.6698C9.96724 28.447 9.81273 28.2709 9.61422 28.1417C9.41757 28.0125 9.19003 27.9479 8.93158 27.9479C8.65815 27.9479 8.4175 28.0209 8.20961 28.167C8.00173 28.3131 7.8388 28.506 7.72081 28.7457C7.6047 28.9854 7.54571 29.2476 7.54383 29.5323V29.7963C7.54383 30.139 7.60283 30.4387 7.72081 30.6953C7.84067 30.95 8.01016 31.1475 8.22928 31.288C8.4484 31.4285 8.70778 31.4987 9.00743 31.4987C9.21156 31.4987 9.39042 31.4669 9.54399 31.4032C9.69943 31.3395 9.82959 31.2543 9.93446 31.1475C10.0412 31.0389 10.1217 30.92 10.1761 30.7908L10.6508 30.9453C10.5853 31.1269 10.4776 31.2946 10.3278 31.4481C10.1798 31.6017 9.99439 31.7253 9.77153 31.8189C9.55054 31.9107 9.29584 31.9566 9.00743 31.9566ZM13.1252 31.8667V27.5518H13.6112V28.2147H13.6477C13.7338 27.9975 13.8837 27.8224 14.0972 27.6894C14.3125 27.5546 14.556 27.4872 14.8276 27.4872C14.8688 27.4872 14.9146 27.4881 14.9652 27.49C15.0158 27.4918 15.0579 27.4937 15.0916 27.4956V28.004C15.0692 28.0003 15.0298 27.9947 14.9736 27.9872C14.9175 27.9797 14.8566 27.976 14.791 27.976C14.5663 27.976 14.3659 28.0237 14.1899 28.1192C14.0157 28.2129 13.8781 28.343 13.7769 28.5097C13.6758 28.6764 13.6252 28.8665 13.6252 29.08V31.8667H13.1252ZM20.6821 27.5518L19.1061 31.8667H18.5724L16.9964 27.5518H17.5386L18.8196 31.2065H18.8589L20.1399 27.5518H20.6821ZM22.9317 31.8667V27.5518H23.4346V31.8667H22.9317ZM23.1874 26.8101C23.0844 26.8101 22.9964 26.7755 22.9233 26.7062C22.8503 26.635 22.8138 26.5498 22.8138 26.4506C22.8138 26.3513 22.8503 26.267 22.9233 26.1977C22.9964 26.1266 23.0844 26.091 23.1874 26.091C23.2904 26.091 23.3784 26.1266 23.4514 26.1977C23.5245 26.267 23.561 26.3513 23.561 26.4506C23.561 26.5498 23.5245 26.635 23.4514 26.7062C23.3784 26.7755 23.2904 26.8101 23.1874 26.8101ZM27.7083 31.9566C27.3225 31.9566 26.9863 31.8601 26.6998 31.6672C26.4151 31.4743 26.1941 31.2103 26.0368 30.8751C25.8795 30.5398 25.8008 30.1578 25.8008 29.7289C25.8008 29.2963 25.8804 28.9114 26.0396 28.5743C26.2007 28.2372 26.4235 27.9731 26.7082 27.7821C26.9929 27.5892 27.3234 27.4928 27.6998 27.4928C27.9882 27.4928 28.2495 27.549 28.4836 27.6613C28.7177 27.7718 28.9106 27.9282 29.0623 28.1305C29.2159 28.3308 29.3123 28.5649 29.3516 28.8328H28.846C28.7936 28.5893 28.6671 28.3814 28.4667 28.2091C28.2682 28.0349 28.0154 27.9479 27.7083 27.9479C27.433 27.9479 27.1895 28.0228 26.9779 28.1726C26.7662 28.3205 26.6005 28.5275 26.4806 28.7934C26.3627 29.0575 26.3037 29.3637 26.3037 29.712C26.3037 30.0623 26.3617 30.3722 26.4778 30.6419C26.5939 30.9097 26.7569 31.1195 26.9666 31.2711C27.1783 31.4228 27.4255 31.4987 27.7083 31.4987C27.8993 31.4987 28.0735 31.4631 28.2308 31.3919C28.39 31.3189 28.5229 31.2159 28.6297 31.0829C28.7383 30.95 28.8113 30.7917 28.8488 30.6082H29.3545C29.317 30.8685 29.2243 31.1007 29.0763 31.3049C28.9303 31.5071 28.7402 31.6663 28.5061 31.7824C28.2738 31.8985 28.0079 31.9566 27.7083 31.9566ZM27.4526 31.8442H27.8796L27.8375 32.069C27.9985 32.0933 28.1353 32.1579 28.2476 32.2628C28.3619 32.3695 28.4199 32.525 28.4218 32.7291C28.4199 32.9557 28.331 33.1355 28.1549 33.2685C27.9808 33.4015 27.7232 33.4698 27.3824 33.4736L27.3655 33.1224C27.5509 33.1187 27.697 33.0868 27.8038 33.0269C27.9105 32.9688 27.9639 32.8743 27.9639 32.7432C27.9639 32.6027 27.9143 32.5035 27.815 32.4454C27.7176 32.3873 27.5631 32.3527 27.3515 32.3415L27.4526 31.8442ZM33.369 31.9566C32.9963 31.9566 32.6667 31.862 32.3801 31.6729C32.0955 31.4837 31.8726 31.2225 31.7115 30.8891C31.5505 30.5539 31.47 30.1671 31.47 29.7289C31.47 29.2869 31.5505 28.8983 31.7115 28.5631C31.8726 28.226 32.0955 27.9638 32.3801 27.7765C32.6667 27.5873 32.9963 27.4928 33.369 27.4928C33.7417 27.4928 34.0703 27.5873 34.355 27.7765C34.6397 27.9657 34.8625 28.2278 35.0236 28.5631C35.1865 28.8983 35.268 29.2869 35.268 29.7289C35.268 30.1671 35.1875 30.5539 35.0264 30.8891C34.8653 31.2225 34.6415 31.4837 34.355 31.6729C34.0703 31.862 33.7417 31.9566 33.369 31.9566ZM33.369 31.4987C33.6686 31.4987 33.9224 31.4182 34.1303 31.2571C34.3381 31.096 34.4955 30.8816 34.6022 30.6138C34.7108 30.346 34.7651 30.051 34.7651 29.7289C34.7651 29.4068 34.7108 29.1109 34.6022 28.8412C34.4955 28.5715 34.3381 28.3552 34.1303 28.1923C33.9224 28.0293 33.6686 27.9479 33.369 27.9479C33.0712 27.9479 32.8174 28.0293 32.6077 28.1923C32.3998 28.3552 32.2415 28.5715 32.1329 28.8412C32.0262 29.1109 31.9728 29.4068 31.9728 29.7289C31.9728 30.051 32.0262 30.346 32.1329 30.6138C32.2415 30.8816 32.3998 31.096 32.6077 31.2571C32.8156 31.4182 33.0693 31.4987 33.369 31.4987ZM42.6755 31.9566C42.3215 31.9566 42.0116 31.863 41.7456 31.6757C41.4797 31.4884 41.2718 31.2271 41.122 30.8919C40.9741 30.5567 40.9001 30.1662 40.9001 29.7205C40.9001 29.2766 40.9741 28.888 41.122 28.5546C41.2718 28.2194 41.4806 27.9591 41.7485 27.7737C42.0163 27.5864 42.3281 27.4928 42.6839 27.4928C42.9461 27.4928 43.1643 27.5396 43.3385 27.6332C43.5126 27.725 43.6522 27.8392 43.757 27.976C43.8619 28.1127 43.9434 28.2456 44.0014 28.3749H44.0464V26.1135H44.5492V31.8667H44.0604V31.0661H44.0014C43.9434 31.1972 43.861 31.332 43.7542 31.4706C43.6475 31.6073 43.5061 31.7225 43.33 31.8161C43.1559 31.9098 42.9377 31.9566 42.6755 31.9566ZM42.7345 31.4987C43.0135 31.4987 43.2514 31.4228 43.448 31.2711C43.6447 31.1176 43.7945 30.9069 43.8975 30.6391C44.0024 30.3694 44.0548 30.0604 44.0548 29.712C44.0548 29.3674 44.0033 29.0631 43.9003 28.7991C43.7973 28.5331 43.6475 28.3252 43.4508 28.1754C43.2542 28.0237 43.0154 27.9479 42.7345 27.9479C42.4461 27.9479 42.2026 28.0265 42.0041 28.1838C41.8074 28.3393 41.6576 28.55 41.5546 28.8159C41.4535 29.0818 41.4029 29.3806 41.4029 29.712C41.4029 30.0473 41.4544 30.3497 41.5574 30.6194C41.6604 30.8891 41.8103 31.1035 42.0069 31.2627C42.2054 31.42 42.4479 31.4987 42.7345 31.4987ZM48.9837 31.9566C48.5811 31.9566 48.2327 31.863 47.9387 31.6757C47.6447 31.4865 47.4171 31.2253 47.2561 30.8919C47.0969 30.5567 47.0173 30.1709 47.0173 29.7345C47.0173 29.3 47.0969 28.9142 47.2561 28.5771C47.4171 28.2381 47.6391 27.9731 47.9219 27.7821C48.2065 27.5892 48.5352 27.4928 48.9079 27.4928C49.142 27.4928 49.3677 27.5358 49.5849 27.622C49.8021 27.7063 49.9969 27.8364 50.1692 28.0125C50.3434 28.1866 50.481 28.4067 50.5822 28.6726C50.6833 28.9367 50.7339 29.2495 50.7339 29.6109V29.8581H47.3628V29.4171H50.2226C50.2226 29.1399 50.1664 28.8908 50.054 28.6698C49.9435 28.447 49.789 28.2709 49.5905 28.1417C49.3939 28.0125 49.1663 27.9479 48.9079 27.9479C48.6345 27.9479 48.3938 28.0209 48.1859 28.167C47.978 28.3131 47.8151 28.506 47.6971 28.7457C47.581 28.9854 47.522 29.2476 47.5201 29.5323V29.7963C47.5201 30.139 47.5791 30.4387 47.6971 30.6953C47.817 30.95 47.9865 31.1475 48.2056 31.288C48.4247 31.4285 48.6841 31.4987 48.9837 31.4987C49.1879 31.4987 49.3667 31.4669 49.5203 31.4032C49.6757 31.3395 49.8059 31.2543 49.9108 31.1475C50.0175 31.0389 50.098 30.92 50.1524 30.7908L50.6271 30.9453C50.5616 31.1269 50.4539 31.2946 50.3041 31.4481C50.1561 31.6017 49.9707 31.7253 49.7478 31.8189C49.5268 31.9107 49.2721 31.9566 48.9837 31.9566ZM58.2917 27.5518V27.9872H56.2325V27.5518H58.2917ZM56.8758 26.518H57.3787V30.7402C57.3787 30.92 57.4096 31.0614 57.4714 31.1644C57.5332 31.2655 57.6137 31.3376 57.713 31.3807C57.8122 31.4219 57.918 31.4425 58.0304 31.4425C58.0959 31.4425 58.1521 31.4388 58.1989 31.4313C58.2458 31.4219 58.287 31.4125 58.3226 31.4032L58.4293 31.8555C58.3806 31.8742 58.3207 31.891 58.2495 31.906C58.1783 31.9229 58.0903 31.9313 57.9854 31.9313C57.8019 31.9313 57.6249 31.891 57.4545 31.8105C57.286 31.73 57.1474 31.6101 57.0387 31.4509C56.9301 31.2917 56.8758 31.0942 56.8758 30.8582V26.518ZM61.8981 31.965C61.6378 31.965 61.4 31.9145 61.1846 31.8133C60.9692 31.7103 60.7979 31.5624 60.6705 31.3695C60.5432 31.1747 60.4795 30.9387 60.4795 30.6616C60.4795 30.4481 60.5198 30.2683 60.6003 30.1222C60.6808 29.9761 60.7951 29.8562 60.943 29.7626C61.091 29.669 61.2661 29.595 61.4683 29.5407C61.6706 29.4864 61.8935 29.4442 62.1369 29.4143C62.3785 29.3843 62.5826 29.3581 62.7493 29.3356C62.9179 29.3131 63.0462 29.2776 63.1342 29.2289C63.2222 29.1802 63.2662 29.1015 63.2662 28.9929V28.8918C63.2662 28.5977 63.1782 28.3664 63.0022 28.1979C62.828 28.0275 62.577 27.9422 62.2493 27.9422C61.9384 27.9422 61.6846 28.0106 61.488 28.1473C61.2932 28.284 61.1565 28.4451 61.0778 28.6305L60.6031 28.4591C60.7005 28.2232 60.8353 28.0349 61.0076 27.8945C61.1799 27.7522 61.3728 27.6501 61.5863 27.5883C61.7998 27.5246 62.0161 27.4928 62.2352 27.4928C62.4 27.4928 62.5714 27.5143 62.7493 27.5574C62.9291 27.6005 63.0958 27.6754 63.2494 27.7821C63.4029 27.887 63.5275 28.034 63.623 28.2232C63.7185 28.4104 63.7663 28.6483 63.7663 28.9367V31.8667H63.2662V31.1841H63.2353C63.1754 31.3114 63.0864 31.435 62.9684 31.5549C62.8505 31.6747 62.7025 31.7731 62.5246 31.8498C62.3467 31.9266 62.1379 31.965 61.8981 31.965ZM61.9656 31.5071C62.2315 31.5071 62.4618 31.4481 62.6566 31.3301C62.8514 31.2122 63.0012 31.0558 63.1061 30.861C63.2128 30.6644 63.2662 30.4481 63.2662 30.2121V29.5884C63.2288 29.624 63.166 29.6559 63.078 29.6839C62.9919 29.712 62.8917 29.7373 62.7774 29.7598C62.665 29.7804 62.5527 29.7982 62.4403 29.8132C62.3279 29.8282 62.2268 29.8413 62.1369 29.8525C61.8935 29.8825 61.6856 29.9293 61.5133 29.993C61.341 30.0566 61.2089 30.1447 61.1172 30.257C61.0254 30.3675 60.9795 30.5099 60.9795 30.684C60.9795 30.9462 61.0732 31.1494 61.2604 31.2936C61.4477 31.436 61.6828 31.5071 61.9656 31.5071ZM62.047 26.9534L62.7662 25.678H63.3589L62.4965 26.9534H62.047ZM66.6711 27.5518L67.7836 29.3918L68.896 27.5518H69.4775L68.0898 29.7092L69.4775 31.8667H68.896L67.7836 30.0857L66.6711 31.8667H66.0924L67.4633 29.7092L66.0924 27.5518H66.6711ZM71.7974 31.8667V27.5518H72.3003V31.8667H71.7974ZM72.053 26.8101C71.95 26.8101 71.862 26.7755 71.789 26.7062C71.7159 26.635 71.6794 26.5498 71.6794 26.4506C71.6794 26.3513 71.7159 26.267 71.789 26.1977C71.862 26.1266 71.95 26.091 72.053 26.091C72.156 26.091 72.2441 26.1266 72.3171 26.1977C72.3901 26.267 72.4267 26.3513 72.4267 26.4506C72.4267 26.5498 72.3901 26.635 72.3171 26.7062C72.2441 26.7755 72.156 26.8101 72.053 26.8101ZM80.1235 31.9566C79.7209 31.9566 79.3725 31.863 79.0785 31.6757C78.7845 31.4865 78.5569 31.2253 78.3959 30.8919C78.2367 30.5567 78.1571 30.1709 78.1571 29.7345C78.1571 29.3 78.2367 28.9142 78.3959 28.5771C78.5569 28.2381 78.7788 27.9731 79.0616 27.7821C79.3463 27.5892 79.675 27.4928 80.0477 27.4928C80.2818 27.4928 80.5074 27.5358 80.7247 27.622C80.9419 27.7063 81.1367 27.8364 81.309 28.0125C81.4832 28.1866 81.6208 28.4067 81.7219 28.6726C81.8231 28.9367 81.8736 29.2495 81.8736 29.6109V29.8581H78.5026V29.4171H81.3624C81.3624 29.1399 81.3062 28.8908 81.1938 28.6698C81.0833 28.447 80.9288 28.2709 80.7303 28.1417C80.5337 28.0125 80.3061 27.9479 80.0477 27.9479C79.7742 27.9479 79.5336 28.0209 79.3257 28.167C79.1178 28.3131 78.9549 28.506 78.8369 28.7457C78.7208 28.9854 78.6618 29.2476 78.6599 29.5323V29.7963C78.6599 30.139 78.7189 30.4387 78.8369 30.6953C78.9568 30.95 79.1262 31.1475 79.3454 31.288C79.5645 31.4285 79.8239 31.4987 80.1235 31.4987C80.3276 31.4987 80.5065 31.4669 80.6601 31.4032C80.8155 31.3395 80.9457 31.2543 81.0505 31.1475C81.1573 31.0389 81.2378 30.92 81.2921 30.7908L81.7669 30.9453C81.7013 31.1269 81.5937 31.2946 81.4438 31.4481C81.2959 31.6017 81.1105 31.7253 80.8876 31.8189C80.6666 31.9107 80.4119 31.9566 80.1235 31.9566ZM87.1404 28.4985L86.6825 28.6277C86.6375 28.4985 86.5738 28.3814 86.4914 28.2765C86.409 28.1717 86.3014 28.0883 86.1684 28.0265C86.0373 27.9647 85.8744 27.9338 85.6796 27.9338C85.3874 27.9338 85.1477 28.0031 84.9604 28.1417C84.7731 28.2803 84.6795 28.4591 84.6795 28.6783C84.6795 28.8637 84.7432 29.0144 84.8705 29.1305C84.9998 29.2448 85.1983 29.3356 85.4661 29.403L86.1178 29.5632C86.4793 29.6512 86.7499 29.7907 86.9297 29.9817C87.1113 30.1728 87.2022 30.4125 87.2022 30.7009C87.2022 30.9443 87.1347 31.1607 86.9999 31.3498C86.8651 31.539 86.6768 31.6878 86.4353 31.7965C86.1955 31.9032 85.9174 31.9566 85.6009 31.9566C85.1795 31.9566 84.8321 31.862 84.5587 31.6729C84.2853 31.4818 84.1102 31.2065 84.0334 30.847L84.5138 30.729C84.5756 30.9855 84.6964 31.1794 84.8762 31.3105C85.0578 31.4416 85.2966 31.5071 85.5925 31.5071C85.924 31.5071 86.189 31.4331 86.3875 31.2852C86.586 31.1354 86.6853 30.9481 86.6853 30.7234C86.6853 30.5492 86.6272 30.4031 86.5111 30.2851C86.395 30.1653 86.2189 30.0772 85.983 30.0211L85.2779 29.8525C84.9033 29.7626 84.6261 29.6203 84.4463 29.4255C84.2666 29.2307 84.1767 28.9891 84.1767 28.7007C84.1767 28.4629 84.2413 28.2541 84.3705 28.0743C84.4997 27.8926 84.6776 27.7503 84.9042 27.6473C85.1309 27.5443 85.3893 27.4928 85.6796 27.4928C86.0747 27.4928 86.3903 27.5827 86.6263 27.7625C86.8641 27.9404 87.0355 28.1857 87.1404 28.4985ZM89.5628 33.4848V27.5518H90.0488V28.3749H90.1078C90.1677 28.2456 90.2501 28.1136 90.355 27.9788C90.4598 27.842 90.5984 27.7269 90.7707 27.6332C90.9449 27.5396 91.164 27.4928 91.4281 27.4928C91.7839 27.4928 92.0948 27.5864 92.3607 27.7737C92.6285 27.9591 92.8364 28.2194 92.9844 28.5546C93.1342 28.888 93.2091 29.2766 93.2091 29.7205C93.2091 30.1662 93.1342 30.5567 92.9844 30.8919C92.8364 31.2271 92.6285 31.4884 92.3607 31.6757C92.0948 31.863 91.7858 31.9566 91.4337 31.9566C91.1734 31.9566 90.9552 31.9098 90.7792 31.8161C90.605 31.7225 90.4636 31.6073 90.355 31.4706C90.2482 31.332 90.1658 31.1972 90.1078 31.0661H90.0628V33.4848H89.5628ZM90.0572 29.712C90.0572 30.0604 90.1087 30.3694 90.2117 30.6391C90.3166 30.9069 90.4664 31.1176 90.6612 31.2711C90.8578 31.4228 91.0957 31.4987 91.3747 31.4987C91.6612 31.4987 91.9028 31.42 92.0995 31.2627C92.298 31.1035 92.4488 30.8891 92.5518 30.6194C92.6566 30.3497 92.7091 30.0473 92.7091 29.712C92.7091 29.3806 92.6576 29.0818 92.5546 28.8159C92.4534 28.55 92.3036 28.3393 92.1051 28.1838C91.9066 28.0265 91.6631 27.9479 91.3747 27.9479C91.0938 27.9479 90.855 28.0237 90.6584 28.1754C90.4617 28.3252 90.3119 28.5331 90.2089 28.7991C90.1078 29.0631 90.0572 29.3674 90.0572 29.712ZM97.3163 31.9566C96.9137 31.9566 96.5653 31.863 96.2713 31.6757C95.9773 31.4865 95.7497 31.2253 95.5887 30.8919C95.4295 30.5567 95.3499 30.1709 95.3499 29.7345C95.3499 29.3 95.4295 28.9142 95.5887 28.5771C95.7497 28.2381 95.9717 27.9731 96.2545 27.7821C96.5391 27.5892 96.8678 27.4928 97.2405 27.4928C97.4746 27.4928 97.7003 27.5358 97.9175 27.622C98.1348 27.7063 98.3295 27.8364 98.5018 28.0125C98.676 28.1866 98.8136 28.4067 98.9148 28.6726C99.0159 28.9367 99.0665 29.2495 99.0665 29.6109V29.8581H95.6954V29.4171H98.5552C98.5552 29.1399 98.499 28.8908 98.3866 28.6698C98.2761 28.447 98.1216 28.2709 97.9231 28.1417C97.7265 28.0125 97.4989 27.9479 97.2405 27.9479C96.9671 27.9479 96.7264 28.0209 96.5185 28.167C96.3106 28.3131 96.1477 28.506 96.0297 28.7457C95.9136 28.9854 95.8546 29.2476 95.8527 29.5323V29.7963C95.8527 30.139 95.9117 30.4387 96.0297 30.6953C96.1496 30.95 96.3191 31.1475 96.5382 31.288C96.7573 31.4285 97.0167 31.4987 97.3163 31.4987C97.5205 31.4987 97.6993 31.4669 97.8529 31.4032C98.0083 31.3395 98.1385 31.2543 98.2434 31.1475C98.3501 31.0389 98.4307 30.92 98.485 30.7908L98.9597 30.9453C98.8942 31.1269 98.7865 31.2946 98.6367 31.4481C98.4887 31.6017 98.3033 31.7253 98.0804 31.8189C97.8594 31.9107 97.6047 31.9566 97.3163 31.9566ZM103.12 31.9566C102.734 31.9566 102.398 31.8601 102.111 31.6672C101.826 31.4743 101.605 31.2103 101.448 30.8751C101.291 30.5398 101.212 30.1578 101.212 29.7289C101.212 29.2963 101.292 28.9114 101.451 28.5743C101.612 28.2372 101.835 27.9731 102.12 27.7821C102.404 27.5892 102.735 27.4928 103.111 27.4928C103.4 27.4928 103.661 27.549 103.895 27.6613C104.129 27.7718 104.322 27.9282 104.474 28.1305C104.627 28.3308 104.724 28.5649 104.763 28.8328H104.257C104.205 28.5893 104.078 28.3814 103.878 28.2091C103.68 28.0349 103.427 27.9479 103.12 27.9479C102.844 27.9479 102.601 28.0228 102.389 28.1726C102.178 28.3205 102.012 28.5275 101.892 28.7934C101.774 29.0575 101.715 29.3637 101.715 29.712C101.715 30.0623 101.773 30.3722 101.889 30.6419C102.005 30.9097 102.168 31.1195 102.378 31.2711C102.59 31.4228 102.837 31.4987 103.12 31.4987C103.311 31.4987 103.485 31.4631 103.642 31.3919C103.801 31.3189 103.934 31.2159 104.041 31.0829C104.15 30.95 104.223 30.7917 104.26 30.6082H104.766C104.728 30.8685 104.636 31.1007 104.488 31.3049C104.342 31.5071 104.152 31.6663 103.917 31.7824C103.685 31.8985 103.419 31.9566 103.12 31.9566ZM107.109 31.8667V27.5518H107.612V31.8667H107.109ZM107.364 26.8101C107.261 26.8101 107.173 26.7755 107.1 26.7062C107.027 26.635 106.991 26.5498 106.991 26.4506C106.991 26.3513 107.027 26.267 107.1 26.1977C107.173 26.1266 107.261 26.091 107.364 26.091C107.467 26.091 107.556 26.1266 107.629 26.1977C107.702 26.267 107.738 26.3513 107.738 26.4506C107.738 26.5498 107.702 26.635 107.629 26.7062C107.556 26.7755 107.467 26.8101 107.364 26.8101ZM111.405 31.965C111.145 31.965 110.907 31.9145 110.691 31.8133C110.476 31.7103 110.305 31.5624 110.177 31.3695C110.05 31.1747 109.986 30.9387 109.986 30.6616C109.986 30.4481 110.027 30.2683 110.107 30.1222C110.188 29.9761 110.302 29.8562 110.45 29.7626C110.598 29.669 110.773 29.595 110.975 29.5407C111.177 29.4864 111.4 29.4442 111.644 29.4143C111.885 29.3843 112.09 29.3581 112.256 29.3356C112.425 29.3131 112.553 29.2776 112.641 29.2289C112.729 29.1802 112.773 29.1015 112.773 28.9929V28.8918C112.773 28.5977 112.685 28.3664 112.509 28.1979C112.335 28.0275 112.084 27.9422 111.756 27.9422C111.445 27.9422 111.191 28.0106 110.995 28.1473C110.8 28.284 110.663 28.4451 110.585 28.6305L110.11 28.4591C110.207 28.2232 110.342 28.0349 110.514 27.8945C110.687 27.7522 110.88 27.6501 111.093 27.5883C111.307 27.5246 111.523 27.4928 111.742 27.4928C111.907 27.4928 112.078 27.5143 112.256 27.5574C112.436 27.6005 112.603 27.6754 112.756 27.7821C112.91 27.887 113.034 28.034 113.13 28.2232C113.225 28.4104 113.273 28.6483 113.273 28.9367V31.8667H112.773V31.1841H112.742C112.682 31.3114 112.593 31.435 112.475 31.5549C112.357 31.6747 112.209 31.7731 112.031 31.8498C111.854 31.9266 111.645 31.965 111.405 31.965ZM111.472 31.5071C111.738 31.5071 111.969 31.4481 112.163 31.3301C112.358 31.2122 112.508 31.0558 112.613 30.861C112.72 30.6644 112.773 30.4481 112.773 30.2121V29.5884C112.736 29.624 112.673 29.6559 112.585 29.6839C112.499 29.712 112.399 29.7373 112.284 29.7598C112.172 29.7804 112.06 29.7982 111.947 29.8132C111.835 29.8282 111.734 29.8413 111.644 29.8525C111.4 29.8825 111.192 29.9293 111.02 29.993C110.848 30.0566 110.716 30.1447 110.624 30.257C110.532 30.3675 110.486 30.5099 110.486 30.684C110.486 30.9462 110.58 31.1494 110.767 31.2936C110.955 31.436 111.19 31.5071 111.472 31.5071ZM116.369 26.1135V31.8667H115.869V26.1135H116.369ZM118.963 31.8667V27.5518H119.466V31.8667H118.963ZM119.219 26.8101C119.116 26.8101 119.028 26.7755 118.955 26.7062C118.882 26.635 118.846 26.5498 118.846 26.4506C118.846 26.3513 118.882 26.267 118.955 26.1977C119.028 26.1266 119.116 26.091 119.219 26.091C119.322 26.091 119.41 26.1266 119.483 26.1977C119.556 26.267 119.593 26.3513 119.593 26.4506C119.593 26.5498 119.556 26.635 119.483 26.7062C119.41 26.7755 119.322 26.8101 119.219 26.8101ZM121.92 31.8667V31.4706L124.414 28.0602V28.0237H122.026V27.5518H125.058V27.9647L122.608 31.3582V31.3948H125.147V31.8667H121.92ZM128.72 31.965C128.46 31.965 128.222 31.9145 128.007 31.8133C127.791 31.7103 127.62 31.5624 127.493 31.3695C127.365 31.1747 127.302 30.9387 127.302 30.6616C127.302 30.4481 127.342 30.2683 127.422 30.1222C127.503 29.9761 127.617 29.8562 127.765 29.7626C127.913 29.669 128.088 29.595 128.29 29.5407C128.493 29.4864 128.716 29.4442 128.959 29.4143C129.201 29.3843 129.405 29.3581 129.571 29.3356C129.74 29.3131 129.868 29.2776 129.956 29.2289C130.044 29.1802 130.088 29.1015 130.088 28.9929V28.8918C130.088 28.5977 130 28.3664 129.824 28.1979C129.65 28.0275 129.399 27.9422 129.071 27.9422C128.76 27.9422 128.507 28.0106 128.31 28.1473C128.115 28.284 127.979 28.4451 127.9 28.6305L127.425 28.4591C127.523 28.2232 127.657 28.0349 127.83 27.8945C128.002 27.7522 128.195 27.6501 128.408 27.5883C128.622 27.5246 128.838 27.4928 129.057 27.4928C129.222 27.4928 129.393 27.5143 129.571 27.5574C129.751 27.6005 129.918 27.6754 130.071 27.7821C130.225 27.887 130.35 28.034 130.445 28.2232C130.541 28.4104 130.588 28.6483 130.588 28.9367V31.8667H130.088V31.1841H130.057C129.997 31.3114 129.908 31.435 129.79 31.5549C129.673 31.6747 129.525 31.7731 129.347 31.8498C129.169 31.9266 128.96 31.965 128.72 31.965ZM128.788 31.5071C129.054 31.5071 129.284 31.4481 129.479 31.3301C129.673 31.2122 129.823 31.0558 129.928 30.861C130.035 30.6644 130.088 30.4481 130.088 30.2121V29.5884C130.051 29.624 129.988 29.6559 129.9 29.6839C129.814 29.712 129.714 29.7373 129.599 29.7598C129.487 29.7804 129.375 29.7982 129.262 29.8132C129.15 29.8282 129.049 29.8413 128.959 29.8525C128.716 29.8825 128.508 29.9293 128.335 29.993C128.163 30.0566 128.031 30.1447 127.939 30.257C127.847 30.3675 127.802 30.5099 127.802 30.684C127.802 30.9462 127.895 31.1494 128.082 31.2936C128.27 31.436 128.505 31.5071 128.788 31.5071ZM134.738 31.9566C134.384 31.9566 134.074 31.863 133.808 31.6757C133.542 31.4884 133.334 31.2271 133.184 30.8919C133.036 30.5567 132.962 30.1662 132.962 29.7205C132.962 29.2766 133.036 28.888 133.184 28.5546C133.334 28.2194 133.543 27.9591 133.811 27.7737C134.078 27.5864 134.39 27.4928 134.746 27.4928C135.008 27.4928 135.226 27.5396 135.401 27.6332C135.575 27.725 135.714 27.8392 135.819 27.976C135.924 28.1127 136.006 28.2456 136.064 28.3749H136.109V26.1135H136.611V31.8667H136.123V31.0661H136.064C136.006 31.1972 135.923 31.332 135.816 31.4706C135.71 31.6073 135.568 31.7225 135.392 31.8161C135.218 31.9098 135 31.9566 134.738 31.9566ZM134.797 31.4987C135.076 31.4987 135.314 31.4228 135.51 31.2711C135.707 31.1176 135.857 30.9069 135.96 30.6391C136.065 30.3694 136.117 30.0604 136.117 29.712C136.117 29.3674 136.065 29.0631 135.962 28.7991C135.859 28.5331 135.71 28.3252 135.513 28.1754C135.316 28.0237 135.078 27.9479 134.797 27.9479C134.508 27.9479 134.265 28.0265 134.066 28.1838C133.87 28.3393 133.72 28.55 133.617 28.8159C133.516 29.0818 133.465 29.3806 133.465 29.712C133.465 30.0473 133.517 30.3497 133.62 30.6194C133.723 30.8891 133.872 31.1035 134.069 31.2627C134.268 31.42 134.51 31.4987 134.797 31.4987ZM140.978 31.9566C140.606 31.9566 140.276 31.862 139.99 31.6729C139.705 31.4837 139.482 31.2225 139.321 30.8891C139.16 30.5539 139.079 30.1671 139.079 29.7289C139.079 29.2869 139.16 28.8983 139.321 28.5631C139.482 28.226 139.705 27.9638 139.99 27.7765C140.276 27.5873 140.606 27.4928 140.978 27.4928C141.351 27.4928 141.68 27.5873 141.965 27.7765C142.249 27.9657 142.472 28.2278 142.633 28.5631C142.796 28.8983 142.877 29.2869 142.877 29.7289C142.877 30.1671 142.797 30.5539 142.636 30.8891C142.475 31.2225 142.251 31.4837 141.965 31.6729C141.68 31.862 141.351 31.9566 140.978 31.9566ZM140.978 31.4987C141.278 31.4987 141.532 31.4182 141.74 31.2571C141.948 31.096 142.105 30.8816 142.212 30.6138C142.32 30.346 142.375 30.051 142.375 29.7289C142.375 29.4068 142.32 29.1109 142.212 28.8412C142.105 28.5715 141.948 28.3552 141.74 28.1923C141.532 28.0293 141.278 27.9479 140.978 27.9479C140.681 27.9479 140.427 28.0293 140.217 28.1923C140.009 28.3552 139.851 28.5715 139.742 28.8412C139.636 29.1109 139.582 29.4068 139.582 29.7289C139.582 30.051 139.636 30.346 139.742 30.6138C139.851 30.8816 140.009 31.096 140.217 31.2571C140.425 31.4182 140.679 31.4987 140.978 31.4987Z" fill="#FCFDFF"/>
<g clip-path="url(#clip0_347_24)">
<path d="M75.2788 8.13311C75.2788 12.6262 67.1632 22.9206 67.1632 22.9206C67.1632 22.9206 59.0667 12.6073 59.0667 8.13311C59.0667 3.63999 62.6988 0 67.1822 0C71.6466 0 75.2788 3.63999 75.2788 8.13311Z" fill="#FE6125"/>
<path d="M75.2788 8.13311C75.2788 12.6262 67.1632 22.9206 67.1632 22.9206C67.1632 22.9206 59.0667 12.6073 59.0667 8.13311C59.0667 3.63999 62.6988 0 67.1822 0C71.6466 0 75.2788 3.63999 75.2788 8.13311Z" fill="#FCFDFF"/>
<path d="M67.1823 0V22.9206C67.1823 22.9206 75.2978 12.6073 75.2978 8.13311C75.2978 3.65895 71.6467 0 67.1823 0Z" fill="#A6B6CE"/>
<path d="M70.8317 7.69702C70.8317 9.71752 69.1974 11.355 67.1819 11.355C65.1664 11.355 63.532 9.71752 63.532 7.69702C63.532 5.67652 65.1664 4.039 67.1819 4.039C69.1974 4.039 70.8317 5.67652 70.8317 7.69702Z" fill="#FEFEFE" stroke="white" stroke-width="0.229376"/>
<path d="M68.8892 7.35369L68.6215 6.55069C68.5827 6.43378 68.508 6.33207 68.4081 6.26003C68.3081 6.18799 68.188 6.14927 68.0649 6.14938H66.2808C66.1576 6.14927 66.0375 6.18799 65.9376 6.26003C65.8376 6.33207 65.763 6.43378 65.7241 6.55069L65.4565 7.35369C65.3853 7.38348 65.3245 7.43363 65.2817 7.49787C65.239 7.5621 65.2162 7.63753 65.2162 7.71469V8.69301C65.2162 8.83741 65.2952 8.96224 65.4118 9.03014V9.47566C65.4118 9.52756 65.4325 9.57732 65.4692 9.61402C65.5059 9.65071 65.5556 9.67133 65.6075 9.67133H65.8032C65.8551 9.67133 65.9048 9.65071 65.9415 9.61402C65.9782 9.57732 65.9988 9.52756 65.9988 9.47566V9.08434H68.3468V9.47566C68.3468 9.52756 68.3674 9.57732 68.4041 9.61402C68.4408 9.65071 68.4906 9.67133 68.5425 9.67133H68.7381C68.79 9.67133 68.8398 9.65071 68.8765 9.61402C68.9132 9.57732 68.9338 9.52756 68.9338 9.47566V9.03014C68.9932 8.99609 69.0425 8.94701 69.0768 8.88782C69.1112 8.82863 69.1293 8.76144 69.1295 8.69301V7.71469C69.1295 7.63753 69.1066 7.5621 69.0639 7.49787C69.0211 7.43363 68.9604 7.38348 68.8892 7.35369ZM66.2808 6.54071H68.0647C68.149 6.54071 68.2237 6.59432 68.2503 6.67454L68.4667 7.32336H65.8789L66.0951 6.67454C66.1081 6.63557 66.133 6.60166 66.1663 6.57764C66.1997 6.55362 66.2397 6.5407 66.2808 6.54071V6.54071ZM65.901 8.49734C65.8625 8.49733 65.8243 8.48973 65.7887 8.47496C65.753 8.46019 65.7207 8.43856 65.6934 8.41128C65.6662 8.38401 65.6446 8.35164 65.6298 8.31601C65.6151 8.28039 65.6075 8.24221 65.6075 8.20365C65.6075 8.1651 65.6151 8.12692 65.6299 8.09131C65.6447 8.05569 65.6663 8.02333 65.6936 7.99608C65.7208 7.96883 65.7532 7.94721 65.7888 7.93247C65.8245 7.91773 65.8626 7.91015 65.9012 7.91016C65.9791 7.91018 66.0537 7.94114 66.1088 7.99622C66.1638 8.0513 66.1947 8.12598 66.1947 8.20385C66.1947 8.28172 66.1637 8.35638 66.1086 8.41142C66.0536 8.46646 65.9789 8.49737 65.901 8.49734V8.49734ZM68.4446 8.49734C68.4061 8.49733 68.3679 8.48973 68.3323 8.47496C68.2967 8.46019 68.2643 8.43856 68.2371 8.41128C68.2098 8.38401 68.1882 8.35164 68.1734 8.31601C68.1587 8.28039 68.1511 8.24221 68.1511 8.20365C68.1512 8.1651 68.1588 8.12692 68.1735 8.09131C68.1883 8.05569 68.2099 8.02333 68.2372 7.99608C68.2645 7.96883 68.2968 7.94721 68.3325 7.93247C68.3681 7.91773 68.4063 7.91015 68.4448 7.91016C68.5227 7.91018 68.5974 7.94114 68.6524 7.99622C68.7074 8.0513 68.7384 8.12598 68.7383 8.20385C68.7383 8.28172 68.7073 8.35638 68.6523 8.41142C68.5972 8.46646 68.5225 8.49737 68.4446 8.49734V8.49734Z" fill="#0050C7"/>
</g>
<path d="M5.88557 6.28022C7.7525 6.28022 9.13688 6.65993 10.0387 7.41936C10.9563 8.16297 11.4152 9.23091 11.4152 10.6232V11.1928C11.4152 12.68 10.9722 13.827 10.0862 14.6339C9.20016 15.4408 7.86325 15.8443 6.07543 15.8443C5.36347 15.8443 4.60404 15.781 3.79714 15.6544V22.1096H1.77991V6.39888C3.12473 6.31977 4.49329 6.28022 5.88557 6.28022ZM5.83811 7.98893C5.14196 7.98893 4.46164 8.00475 3.79714 8.03639V13.922C4.74643 14.0485 5.47422 14.1118 5.9805 14.1118C8.25879 14.1118 9.39793 13.1072 9.39793 11.0978V10.6944C9.39793 9.79257 9.11314 9.12016 8.54357 8.67716C7.974 8.21834 7.07218 7.98893 5.83811 7.98893ZM17.6506 6.28022C19.4226 6.28022 20.7279 6.72322 21.5664 7.60922C22.4049 8.49522 22.8242 9.75302 22.8242 11.3826V17.2919C22.8242 18.9215 22.4049 20.1793 21.5664 21.0653C20.7279 21.9513 19.4226 22.3943 17.6506 22.3943C15.8786 22.3943 14.5733 21.9513 13.7348 21.0653C12.8963 20.1793 12.477 18.9215 12.477 17.2919V11.3826C12.477 9.75302 12.8963 8.49522 13.7348 7.60922C14.5733 6.72322 15.8786 6.28022 17.6506 6.28022ZM17.6506 8.06013C16.6064 8.06013 15.8153 8.32118 15.2774 8.84329C14.7553 9.3654 14.4942 10.1327 14.4942 11.1453V17.5055C14.4942 18.5181 14.7553 19.2933 15.2774 19.8313C15.8153 20.3534 16.6064 20.6144 17.6506 20.6144C18.6948 20.6144 19.478 20.3534 20.0001 19.8313C20.538 19.2933 20.807 18.5181 20.807 17.5055V11.169C20.807 10.1565 20.538 9.38913 20.0001 8.86702C19.478 8.32909 18.6948 8.06013 17.6506 8.06013ZM29.0936 6.28022C30.9605 6.28022 32.337 6.64411 33.223 7.37189C34.109 8.09968 34.552 9.12016 34.552 10.4333V11.0266C34.552 11.9443 34.2988 12.7591 33.7925 13.4711C33.2863 14.1672 32.5585 14.6577 31.6092 14.9424L35.6436 22.1096H33.3891L29.6157 15.3696C29.4891 15.3854 29.236 15.3934 28.8562 15.3934C28.2234 15.3934 27.5984 15.3696 26.9814 15.3222V22.1096H24.9642V6.37514C26.7362 6.31186 28.1126 6.28022 29.0936 6.28022ZM29.0461 7.98893C28.524 7.98893 27.8358 8.00475 26.9814 8.03639V13.6372C27.8358 13.7163 28.5477 13.7558 29.1173 13.7558C31.3956 13.7558 32.5347 12.8303 32.5347 10.9792V10.5045C32.5347 9.65018 32.2579 9.01732 31.7041 8.60597C31.1504 8.19461 30.2644 7.98893 29.0461 7.98893ZM46.1414 6.565V8.39238H41.6323V22.1096H39.6151V8.39238H35.106V6.565H46.1414ZM51.7897 6.28022C53.5617 6.28022 54.8669 6.72322 55.7055 7.60922C56.544 8.49522 56.9633 9.75302 56.9633 11.3826V17.2919C56.9633 18.9215 56.544 20.1793 55.7055 21.0653C54.8669 21.9513 53.5617 22.3943 51.7897 22.3943C50.0177 22.3943 48.7124 21.9513 47.8739 21.0653C47.0353 20.1793 46.6161 18.9215 46.6161 17.2919V11.3826C46.6161 9.75302 47.0353 8.49522 47.8739 7.60922C48.7124 6.72322 50.0177 6.28022 51.7897 6.28022ZM51.7897 8.06013C50.7454 8.06013 49.9544 8.32118 49.4164 8.84329C48.8943 9.3654 48.6333 10.1327 48.6333 11.1453V17.5055C48.6333 18.5181 48.8943 19.2933 49.4164 19.8313C49.9544 20.3534 50.7454 20.6144 51.7897 20.6144C52.8339 20.6144 53.617 20.3534 54.1391 19.8313C54.6771 19.2933 54.946 18.5181 54.946 17.5055V11.169C54.946 10.1565 54.6771 9.38913 54.1391 8.86702C53.617 8.32909 52.8339 8.06013 51.7897 8.06013Z" fill="#FCFDFF"/>
<path d="M81.672 6.34208C82.5263 6.34208 83.6418 6.46865 85.0182 6.72179L84.9708 8.5017C83.6734 8.24856 82.5738 8.12199 81.672 8.12199C80.7543 8.12199 80.0898 8.30393 79.6785 8.66783C79.2829 9.03172 79.0852 9.58547 79.0852 10.3291V10.9461C79.0852 11.3416 79.1326 11.6581 79.2276 11.8954C79.3383 12.1169 79.5282 12.3147 79.7971 12.4887C80.0661 12.6469 80.4696 12.813 81.0075 12.9871L83.2146 13.7228C84.2746 14.0867 85.0182 14.5692 85.4454 15.1704C85.8884 15.7716 86.1099 16.6497 86.1099 17.8047V18.2556C86.1099 19.6637 85.6985 20.7158 84.8758 21.412C84.0689 22.1081 82.7399 22.4562 80.8888 22.4562C79.987 22.4562 78.832 22.298 77.4239 21.9816L77.4714 20.1542C78.7846 20.4706 79.9079 20.6288 80.8414 20.6288C82.028 20.6288 82.8665 20.4548 83.357 20.1067C83.8474 19.7428 84.0927 19.1812 84.0927 18.4217V17.6386C84.0927 17.0848 83.9661 16.6656 83.7129 16.3808C83.4756 16.0802 83.0484 15.827 82.4314 15.6213L79.987 14.8145C78.8953 14.4506 78.1359 13.9838 77.7087 13.4143C77.2815 12.8289 77.0679 11.9508 77.0679 10.78V10.5189C77.0679 9.14247 77.4318 8.10617 78.1596 7.41002C78.9032 6.69806 80.074 6.34208 81.672 6.34208ZM95.6013 6.62686V8.45424H89.4309V13.3668H95.1266V15.1704H89.4309V20.344H95.6013V22.1714H87.4137V6.62686H95.6013ZM102.401 6.34208C102.986 6.34208 103.659 6.39745 104.418 6.5082C105.178 6.60313 105.874 6.71388 106.507 6.84045L106.459 8.62036C104.671 8.27229 103.319 8.09825 102.401 8.09825C101.309 8.09825 100.526 8.31975 100.051 8.76276C99.5926 9.18993 99.3632 9.90981 99.3632 10.9224V17.8047C99.3632 18.8173 99.5926 19.553 100.051 20.0118C100.526 20.4548 101.309 20.6763 102.401 20.6763C103.113 20.6763 104.038 20.5655 105.178 20.344V15.0992H102.211V13.2007H107.195V21.5781C105.296 22.1635 103.698 22.4562 102.401 22.4562C100.581 22.4562 99.2841 22.0686 98.5088 21.2933C97.7336 20.5181 97.346 19.3077 97.346 17.6623V11.136C97.346 9.4589 97.7415 8.24065 98.5326 7.48122C99.3236 6.72179 100.613 6.34208 102.401 6.34208ZM119.433 17.2589C119.433 18.9359 119.006 20.2254 118.152 21.1272C117.297 22.0132 116.039 22.4562 114.378 22.4562C112.733 22.4562 111.475 22.0211 110.605 21.1509C109.75 20.2808 109.323 18.9992 109.323 17.3063V6.62686H111.341V17.5674C111.341 18.58 111.602 19.3552 112.124 19.8931C112.662 20.4152 113.413 20.6763 114.378 20.6763C115.359 20.6763 116.111 20.4152 116.633 19.8931C117.155 19.3552 117.416 18.58 117.416 17.5674V6.62686H119.433V17.2589ZM125.821 6.34208C127.688 6.34208 129.065 6.70597 129.951 7.43375C130.837 8.16154 131.28 9.18202 131.28 10.4952V11.0885C131.28 12.0061 131.026 12.821 130.52 13.5329C130.014 14.2291 129.286 14.7195 128.337 15.0043L132.371 22.1714H130.117L126.343 15.4315C126.217 15.4473 125.964 15.4552 125.584 15.4552C124.951 15.4552 124.326 15.4315 123.709 15.384V22.1714H121.692V6.437C123.464 6.37372 124.84 6.34208 125.821 6.34208ZM125.774 8.05079C125.252 8.05079 124.563 8.06661 123.709 8.09825V13.699C124.563 13.7781 125.275 13.8177 125.845 13.8177C128.123 13.8177 129.262 12.8921 129.262 11.041V10.5664C129.262 9.71204 128.985 9.07918 128.432 8.66783C127.878 8.25647 126.992 8.05079 125.774 8.05079ZM138.096 6.34208C139.868 6.34208 141.173 6.78508 142.011 7.67108C142.85 8.55708 143.269 9.81488 143.269 11.4445V17.3538C143.269 18.9834 142.85 20.2412 142.011 21.1272C141.173 22.0132 139.868 22.4562 138.096 22.4562C136.324 22.4562 135.018 22.0132 134.18 21.1272C133.341 20.2412 132.922 18.9834 132.922 17.3538V11.4445C132.922 9.81488 133.341 8.55708 134.18 7.67108C135.018 6.78508 136.324 6.34208 138.096 6.34208ZM138.096 8.12199C137.051 8.12199 136.26 8.38304 135.722 8.90515C135.2 9.42725 134.939 10.1946 134.939 11.2072V17.5674C134.939 18.58 135.2 19.3552 135.722 19.8931C136.26 20.4152 137.051 20.6763 138.096 20.6763C139.14 20.6763 139.923 20.4152 140.445 19.8931C140.983 19.3552 141.252 18.58 141.252 17.5674V11.2309C141.252 10.2183 140.983 9.45099 140.445 8.92888C139.923 8.39095 139.14 8.12199 138.096 8.12199Z" fill="#FCFDFF"/>
<defs>
<clipPath id="clip0_347_24">
<rect width="16.2121" height="22.9206" fill="white" transform="translate(59.0667)"/>
</clipPath>
</defs>
</svg>
